#!OML:ASF X:\für Bonn\!DataBase\2005_08_12_Daniel\c3d\Daniel.ASF
:FULLY-SPECIFIED
:DEGREES
438
root 28.1653 17.3636 -26.1488 170.766 -81.2533 -169.341
lowerback 11.9644 0.0412815 0.704246
upperback 2.81375 -0.0557036 -1.63865
thorax -3.7623 -0.0895673 -2.09461
lowerneck 2.26658 7.93584 -0.424332
upperneck 7.42341 10.8346 -7.98726
head 2.45647 5.1096 -2.32172
rclavicle -4.77083e-015 3.18055e-015
rhumerus -39.351 -8.84504 -82.113
rradius 19.9216
rwrist 16.1009
rhand -18.2578 15.429
rfingers 7.12502
rthumb 8.02157 -14.3988
lclavicle -4.77083e-015 3.18055e-015
lhumerus -42.879 14.4224 78.7335
lradius 33.9474
lwrist -14.8186
lhand -8.96709 -4.42231
lfingers 7.12502
lthumb 16.9781 24.8557
rfemur -4.44949 9.41372 18.8899
rtibia 34.0893
rfoot -29.3355 -8.3761
rtoes -16.3565
lfemur -21.3106 14.7018 -20.8589
ltibia 61.2393
lfoot -23.8339 2.50087
ltoes -15.1403
439
root 28.236 17.3419 -26.2187 168.177 -82.5117 -166.504
lowerback 11.7563 -0.121246 0.816131
upperback 2.72321 -0.241787 -1.48857
thorax -3.75006 -0.178653 -1.97312
lowerneck 2.19891 7.9689 -0.612356
upperneck 7.41995 10.8761 -7.86519
head 2.44834 5.12791 -2.246
rclavicle -2.84262e-014 1.66979e-014
rhumerus -39.504 -8.5522 -82.4114
rradius 20.2689
rwrist 15.7585
rhand -18.2411 15.5817
rfingers 7.12502
rthumb 8.03767 -14.2454
lclavicle -2.84262e-014 1.66979e-014
lhumerus -42.6111 14.9564 78.5568
lradius 32.5328
lwrist -16.0179
lhand -8.67215 -4.29227
lfingers 7.12502
lthumb 17.262 24.9611
rfemur -4.62666 10.1113 19.2862
rtibia 34.289
rfoot -29.6604 -7.73082
rtoes -16.2207
lfemur -20.9767 14.9674 -21.2317
ltibia 60.9661
lfoot -24.3747 2.08512
ltoes -14.6085
440
root 28.306 17.3212 -26.287 164.692 -83.7682 -162.787
lowerback 11.6099 -0.255326 0.893644
upperback 2.616 -0.395399 -1.33745
thorax -3.78714 -0.252092 -1.83674
lowerneck 2.11914 7.97247 -0.853927
upperneck 7.45462 10.8776 -7.69037
head 2.44605 5.12439 -2.14432
rclavicle 1.26228e-014 5.56597e-015
rhumerus -39.7128 -8.07286 -82.7745
rradius 20.7182
rwrist 15.1351
rhand -18.1784 15.6067
rfingers 7.12502
rthumb 8.09814 -14.2181
lclavicle 1.26228e-014 5.56597e-015
lhumerus -42.3011 15.6927 78.2566
lradius 31.0214
lwrist -17.5511
lhand -8.25663 -4.25771
lfingers 7.12502
lthumb 17.6619 24.9601
rfemur -4.79268 10.628 19.6437
rtibia 34.4449
rfoot -29.9222 -7.18628
rtoes -16.301
lfemur -20.5798 14.9242 -21.5542
ltibia 60.6199
lfoot -24.9493 1.46804
ltoes -13.3302
441
root 28.3793 17.2952 -26.3548 158.446 -85.0096 -156.309
lowerback 11.4948 -0.404011 1.00307
upperback 2.51288 -0.56275 -1.13216
thorax -3.83684 -0.332714 -1.66019
lowerneck 2.01544 7.96341 -1.11527
upperneck 7.52456 10.8656 -7.51917
head 2.45837 5.11137 -2.03988
rclavicle -6.06293e-015 1.19271e-014
rhumerus -39.8687 -7.72479 -82.972
rradius 21.0548
rwrist 14.8505
rhand -18.1836 15.6877
rfingers 7.12502
rthumb 8.09317 -14.1374
lclavicle -6.06293e-015 1.19271e-014
lhumerus -41.9725 16.6063 77.9325
lradius 29.4758
lwrist -19.1961
lhand -8.05871 -4.17127
lfingers 7.12502
lthumb 17.8523 25.0293
rfemur -4.91764 11.1992 20.0989
rtibia 34.5434
rfoot -30.453 -6.76968
rtoes -16.1098
lfemur -20.1767 14.6148 -21.6938
ltibia 60.2221
lfoot -25.5779 0.625732
ltoes -11.2976
442
root 28.4495 17.2743 -26.42 148.263 -86.1603 -145.919
lowerback 11.4675 -0.551182 1.13315
upperback 2.38845 -0.726975 -0.951062
thorax -3.95691 -0.412963 -1.52061
lowerneck 1.85003 7.94802 -1.37782
upperneck 7.61093 10.8487 -7.31169
head 2.48438 5.09539 -1.92124
rclavicle 8.34896e-015 1.19271e-014
rhumerus -39.9942 -7.33058 -83.2156
rradius 21.3357
rwrist 14.4966
rhand -18.2196 15.7877
rfingers 7.12502
rthumb 8.05836 -14.0387
lclavicle 8.34896e-015 1.19271e-014
lhumerus -41.6748 17.7099 77.4285
lradius 27.9382
lwrist -21.098
lhand -7.80474 -4.11073
lfingers 7.12502
lthumb 18.0967 25.0674
rfemur -4.97926 11.7362 20.5437
rtibia 34.5569
rfoot -30.9748 -6.48894
rtoes -16.0391
lfemur -19.726 14.0671 -21.795
ltibia 59.7614
lfoot -26.2719 -0.146946
ltoes -10.0116
443
root 28.5187 17.2569 -26.4844 130.74 -87.1161 -128.203
lowerback 11.4633 -0.687394 1.20461
upperback 2.2795 -0.884947 -0.779527
thorax -4.07228 -0.489933 -1.35838
lowerneck 1.68059 7.92282 -1.56129
upperneck 7.68109 10.8222 -7.15017
head 2.51381 5.07678 -1.83123
rclavicle -2.98177e-016 1.74931e-014
rhumerus -40.0595 -7.21644 -83.3295
rradius 21.4944
rwrist 14.595
rhand -18.3437 15.868
rfingers 7.12502
rthumb 7.93863 -13.9629
lclavicle -2.98177e-016 1.74931e-014
lhumerus -41.477 19.0076 76.812
lradius 26.5585
lwrist -23.0583
lhand -7.66678 -3.94239
lfingers 7.12502
lthumb 18.2294 25.2234
rfemur -4.98417 12.3688 21.0122
rtibia 34.5037
rfoot -31.5351 -6.49114
rtoes -15.978
lfemur -19.2593 13.3425 -21.8506
ltibia 59.2168
lfoot -27.0442 -0.801592
ltoes -9.22903
444
root 28.5864 17.2378 -26.5469 101.46 -87.561 -98.7504
lowerback 11.479 -0.839192 1.34592
upperback 2.18475 -1.05617 -0.618755
thorax -4.18501 -0.574605 -1.24424
lowerneck 1.44564 7.88985 -1.78907
upperneck 7.78254 10.7899 -6.96652
head 2.56107 5.05194 -1.72413
rclavicle 1.68967e-014 9.14409e-015
rhumerus -40.0318 -6.90516 -83.5557
rradius 21.5839
rwrist 14.4352
rhand -18.4992 15.8674
rfingers 7.12502
rthumb 7.78857 -13.9692
lclavicle 1.68967e-014 9.14409e-015
lhumerus -41.344 20.4079 76.0501
lradius 25.227
lwrist -25.1757
lhand -7.61057 -3.85725
lfingers 7.12502
lthumb 18.2835 25.3035
rfemur -4.95749 13.0172 21.5269
rtibia 34.4407
rfoot -32.1546 -6.65031
rtoes -15.7114
lfemur -18.7708 12.4514 -21.8279
ltibia 58.5862
lfoot -28.0278 -1.28876
ltoes -8.53783
445
root 28.6498 17.2197 -26.6079 71.0062 -87.3121 -68.1398
lowerback 11.4976 -0.9554 1.39054
upperback 2.07982 -1.19258 -0.476772
thorax -4.30729 -0.641121 -1.09979
lowerneck 1.26021 7.83167 -1.90616
upperneck 7.89177 10.7244 -6.8181
head 2.6108 5.01387 -1.64953
rclavicle -6.26172e-015 3.57812e-015
rhumerus -40.0067 -6.98359 -83.5845
rradius 21.5071
rwrist 14.6463
rhand -18.702 15.9401
rfingers 7.12502
rthumb 7.59276 -13.9036
lclavicle -6.26172e-015 3.57812e-015
lhumerus -41.3316 22.0168 75.0995
lradius 23.9545
lwrist -27.5358
lhand -7.49642 -3.80145
lfingers 7.12502
lthumb 18.3933 25.349
rfemur -4.91617 13.6984 22.0172
rtibia 34.4079
rfoot -32.766 -7.02449
rtoes -15.6435
lfemur -18.2243 11.4535 -21.8299
ltibia 57.8257
lfoot -29.1913 -1.56521
ltoes -8.26204
446
root 28.7138 17.1959 -26.666 50.62 -86.4455 -47.6067
lowerback 11.5429 -1.07958 1.50023
upperback 1.97082 -1.33149 -0.340334
thorax -4.44974 -0.709996 -0.99647
lowerneck 1.13755 7.76821 -1.97664
upperneck 7.9625 10.6469 -6.68189
head 2.64005 4.97391 -1.59002
rclavicle 2.68359e-015 -4.77083e-015
rhumerus -39.8992 -7.13856 -83.567
rradius 21.2541
rwrist 14.9875
rhand -18.9056 15.9845
rfingers 7.12502
rthumb 7.39623 -13.8662
lclavicle 2.68359e-015 -4.77083e-015
lhumerus -41.3915 23.6585 74.0479
lradius 22.7409
lwrist -29.8391
lhand -7.55324 -3.66367
lfingers 7.12502
lthumb 18.3387 25.4919
rfemur -4.9458 14.221 22.6061
rtibia 34.4618
rfoot -33.3546 -7.75573
rtoes -15.8664
lfemur -17.6593 10.2832 -21.7445
ltibia 56.9456
lfoot -30.3623 -1.76811
ltoes -7.99218
